<svg id="Logo_en" data-name="Logo_en" width="150" height="70.9" xmlns="http://www.w3.org/2000/svg" xmlns:xlink="http://www.w3.org/1999/xlink" viewBox="0 0 150 70.9"><defs><style>.cls-1{fill:#034ea2;}.cls-2{fill:#fff200;}.cls-3{fill:url(#linear-gradient);}</style><linearGradient id="linear-gradient" y1="722.68" x2="57.35" y2="722.68" gradientTransform="matrix(1, 0, 0, -1, 0, 742.89)" gradientUnits="userSpaceOnUse"><stop offset="0.01" stop-color="#f58220"/><stop offset="0.18" stop-color="#f58524"/><stop offset="0.37" stop-color="#f68c32"/><stop offset="0.58" stop-color="#f79948"/><stop offset="0.78" stop-color="#f8aa67"/><stop offset="1" stop-color="#fac08e"/><stop offset="1" stop-color="#fac18f"/></linearGradient></defs><title>logo</title><path class="cls-1" d="M.45,68.48V60.81H5.08v.86H1.62V64H5v.86H1.62v2.73H5.12v.86Z"/><path class="cls-1" d="M9.65,68.48V68a4.29,4.29,0,0,1-1.9.59,1.32,1.32,0,0,1-1.21-.55,2.24,2.24,0,0,1-.28-1.45V63H7.4v3.32c0,.76,0,1.28.83,1.28a4.27,4.27,0,0,0,1.38-.28V63h1.14v5.43H9.65Z"/><path class="cls-1" d="M14.8,64a3.4,3.4,0,0,0-1.38.28v4.22H12.27V63h1.11v.52A2.58,2.58,0,0,1,14.93,63h.24v1Z"/><path class="cls-1" d="M18,68.59c-1.59,0-2.52-1-2.52-2.83s.93-2.83,2.52-2.83,2.52,1,2.52,2.83S19.64,68.59,18,68.59Zm0-4.81c-.9,0-1.31.62-1.31,2s.41,2,1.35,2,1.31-.59,1.31-2S19,63.78,18,63.78Z"/><path class="cls-1" d="M24.54,68.62A3.47,3.47,0,0,1,22.92,68v2.8H21.78V63.06h1.07v.48a4.27,4.27,0,0,1,1.83-.62c1.14,0,1.83,1.07,1.83,2.83S25.75,68.62,24.54,68.62Zm-.35-4.74a3.61,3.61,0,0,0-1.28.31v3.11a3.64,3.64,0,0,0,1.24.31c.76,0,1.18-.62,1.18-1.83S25,63.89,24.2,63.89Z"/><path class="cls-1" d="M28.62,65.93v.17c0,1.11.45,1.59,1.31,1.59a6.08,6.08,0,0,0,1.83-.38L32,68a5.8,5.8,0,0,1-2.32.66c-1.35,0-2.21-1-2.21-2.66,0-1.83.9-3,2.42-3s2.21.9,2.21,2.73v.24H28.62Zm1.31-2.21c-.73,0-1.18.52-1.28,1.56l2.28-.1C30.94,64.16,30.63,63.71,29.94,63.71Z"/><path class="cls-1" d="M36,68.48V68a3.31,3.31,0,0,1-1.66.62c-.76,0-1.42-.59-1.42-1.69a1.44,1.44,0,0,1,.73-1.38A4.88,4.88,0,0,1,36,65.2V65c0-.83,0-1.18-1-1.18a11.45,11.45,0,0,0-1.59.17l-.1-.73a7.58,7.58,0,0,1,2.21-.38,1.47,1.47,0,0,1,1.31.52c.21.31.28.66.28,1.69v3.39H36Zm-.07-2.63c-1.52.1-1.9.31-1.9,1s.28.86.73.86A4.36,4.36,0,0,0,36,67.45V65.86Z"/><path class="cls-1" d="M41.9,68.48V65.16c0-.76,0-1.28-.83-1.28a4.27,4.27,0,0,0-1.38.28v4.32H38.55V63.06h1.07v.45a4.28,4.28,0,0,1,1.94-.59,1.41,1.41,0,0,1,1.21.55A2.28,2.28,0,0,1,43,64.92v3.56H41.9Z"/><path class="cls-1" d="M48.74,61.67V64H52v.86H48.74v3.6H47.53V60.81H52.1v.86Z"/><path class="cls-1" d="M55.21,68.59c-1.59,0-2.52-1-2.52-2.83s.93-2.83,2.52-2.83,2.52,1,2.52,2.83S56.83,68.59,55.21,68.59Zm0-4.81c-.9,0-1.31.62-1.31,2s.41,2,1.35,2,1.31-.59,1.31-2S56.18,63.78,55.21,63.78Z"/><path class="cls-1" d="M61.15,68.59c-1.59,0-2.52-1-2.52-2.83s.93-2.83,2.52-2.83,2.52,1,2.52,2.83S62.78,68.59,61.15,68.59Zm0-4.81c-.9,0-1.31.62-1.31,2s.41,2,1.35,2,1.31-.59,1.31-2S62.09,63.78,61.15,63.78Z"/><path class="cls-1" d="M68.24,68.48V68a3.86,3.86,0,0,1-1.8.62c-1.18,0-1.87-1.07-1.87-2.83s.8-2.87,2-2.87a3.42,3.42,0,0,1,1.62.59V60.32h1.14v8.16H68.24Zm-.07-4.29a3.47,3.47,0,0,0-1.24-.31c-.76,0-1.18.62-1.18,1.83s.38,1.9,1.14,1.9a3.61,3.61,0,0,0,1.28-.31Z"/><path class="cls-1" d="M75.57,68.59a7.31,7.31,0,0,1-2.28-.38l.21-.86a9,9,0,0,0,1.94.28c.86,0,1.66-.45,1.66-1.24,0-.52-.17-.8-.86-1-1.31-.48-2.87-.69-2.87-2.42a2.17,2.17,0,0,1,2.45-2.18,8.89,8.89,0,0,1,2.14.31l-.17.83A11.6,11.6,0,0,0,76,61.64c-.76,0-1.42.38-1.42,1.18,0,.62.24.83,1.45,1.18,1.62.45,2.28.9,2.28,2.21C78.3,67.69,77.26,68.59,75.57,68.59Z"/><path class="cls-1" d="M82.21,68.48V68a3.31,3.31,0,0,1-1.66.62c-.76,0-1.42-.59-1.42-1.69a1.44,1.44,0,0,1,.73-1.38,4.88,4.88,0,0,1,2.32-.35V65c0-.83,0-1.18-1-1.18a11.45,11.45,0,0,0-1.59.17l-.1-.73a7.58,7.58,0,0,1,2.21-.38,1.47,1.47,0,0,1,1.31.52c.21.31.28.66.28,1.69v3.39H82.21Zm0-2.63c-1.52.1-1.9.31-1.9,1s.28.86.73.86a4,4,0,0,0,1.18-.31Z"/><path class="cls-1" d="M87.91,61.09A4.51,4.51,0,0,0,87,61c-.59,0-.73.24-.73,1v1h1.52v.76H86.25v4.67H85.15V63.82h-1v-.66l1-.14v-.9a2.1,2.1,0,0,1,.28-1.38,1.45,1.45,0,0,1,1.24-.59,6.51,6.51,0,0,1,1.38.21Z"/><path class="cls-1" d="M89.26,65.93v.17c0,1.11.45,1.59,1.31,1.59a6.08,6.08,0,0,0,1.83-.38l.21.66a5.66,5.66,0,0,1-2.32.66c-1.35,0-2.21-1-2.21-2.66,0-1.83.9-3,2.42-3s2.21.9,2.21,2.73v.24H89.26Zm1.31-2.21c-.73,0-1.18.52-1.28,1.56l2.32-.1C91.58,64.16,91.27,63.71,90.57,63.71Z"/><path class="cls-1" d="M95.34,68.62A1.14,1.14,0,0,1,94.24,68a2.43,2.43,0,0,1-.17-1.24v-3h-.93v-.62l.93-.1V61.6h1.14v1.49h1.49v.76H95.21v2.63c0,.93,0,.93.1,1.07s.24.21.48.21a3,3,0,0,0,1-.17l.17.69A4.72,4.72,0,0,1,95.34,68.62Z"/><path class="cls-1" d="M100,69.17c-.52,1.42-.86,1.73-1.87,1.73-.24,0-.45,0-.83-.07l.07-.73a2.48,2.48,0,0,0,.45,0c.76,0,.8-.07,1.24-1.21l.21-.45-2.21-5.39h1.24l1.56,4.11,1.38-4.11h1Z"/><path class="cls-1" d="M110.9,68.48l-.66-1.94h-3.18l-.66,1.94h-1.07l2.7-7.67h1.38l2.77,7.67Zm-2.28-6.67-1.28,3.91h2.59Z"/><path class="cls-1" d="M116.36,68.48V68a4.29,4.29,0,0,1-1.9.59,1.43,1.43,0,0,1-1.24-.55,2.24,2.24,0,0,1-.28-1.45V63h1.14v3.32c0,.76,0,1.28.83,1.28a4.27,4.27,0,0,0,1.38-.28V63h1.14v5.43h-1.07Z"/><path class="cls-1" d="M120.48,68.62a1.17,1.17,0,0,1-1.11-.59,2.43,2.43,0,0,1-.17-1.24v-3h-.93v-.62l.93-.1V61.6h1.14v1.49h1.49v.76h-1.49v2.63c0,.93,0,.93.1,1.07s.24.21.48.21a3,3,0,0,0,1-.17l.17.69A4.72,4.72,0,0,1,120.48,68.62Z"/><path class="cls-1" d="M126.35,68.48V65.16c0-.76,0-1.28-.83-1.28a4.27,4.27,0,0,0-1.38.28v4.32H123V60.32h1.11v3.15a4.26,4.26,0,0,1,1.87-.55,1.41,1.41,0,0,1,1.21.55,2.28,2.28,0,0,1,.28,1.45v3.56Z"/><path class="cls-1" d="M131.16,68.59c-1.59,0-2.52-1-2.52-2.83s.93-2.83,2.52-2.83,2.52,1,2.52,2.83S132.78,68.59,131.16,68.59Zm0-4.81c-.9,0-1.31.62-1.31,2s.41,2,1.35,2,1.31-.59,1.31-2S132.13,63.78,131.16,63.78Z"/><path class="cls-1" d="M137.42,64a3.4,3.4,0,0,0-1.38.28v4.22h-1.14V63H136v.52a2.51,2.51,0,0,1,1.56-.59h.24v1Z"/><path class="cls-1" d="M139.21,62a.69.69,0,0,1,0-1.38.69.69,0,0,1,0,1.38Zm-.55,6.5V63.06h1.14v5.43Z"/><path class="cls-1" d="M142.84,68.62a1.17,1.17,0,0,1-1.11-.59,2.43,2.43,0,0,1-.17-1.24v-3h-.93v-.62l.93-.1V61.6h1.14v1.49h1.49v.76h-1.52v2.63c0,.93,0,.93.1,1.07s.24.21.48.21a2.69,2.69,0,0,0,.93-.17l.17.69A4.09,4.09,0,0,1,142.84,68.62Z"/><path class="cls-1" d="M147.55,69.17c-.52,1.42-.86,1.73-1.87,1.73-.24,0-.45,0-.83-.07l.07-.73a2.48,2.48,0,0,0,.45,0c.76,0,.8-.07,1.28-1.21l.17-.45-2.21-5.39h1.24l1.56,4.11,1.38-4.11h1Z"/><polygon class="cls-1" points="150 51.23 150 36.58 127.98 36.58 127.98 51.23 150 51.23"/><polygon class="cls-2" points="138.97 38.06 139.21 38.72 139.87 38.72 139.35 39.13 139.56 39.79 138.97 39.41 138.42 39.79 138.63 39.13 138.07 38.72 138.76 38.72 138.97 38.06"/><polygon class="cls-2" points="139.04 47.81 139.28 48.47 139.97 48.47 139.42 48.88 139.63 49.54 139.08 49.16 138.49 49.54 138.7 48.88 138.14 48.47 138.83 48.47 139.04 47.81"/><polygon class="cls-2" points="141.39 38.68 141.63 39.31 142.29 39.34 141.77 39.76 141.98 40.41 141.39 40 140.84 40.41 141.05 39.76 140.49 39.34 141.19 39.31 141.39 38.68"/><polygon class="cls-2" points="141.46 47.15 141.7 47.81 142.36 47.81 141.84 48.23 142.05 48.88 141.46 48.5 140.91 48.88 141.12 48.26 140.56 47.84 141.22 47.81 141.46 47.15"/><polygon class="cls-2" points="136.59 38.72 136.79 39.34 137.49 39.38 136.93 39.79 137.14 40.45 136.59 40.03 136.03 40.45 136.21 39.79 135.69 39.38 136.34 39.38 136.59 38.72"/><polygon class="cls-2" points="136.66 47.15 136.86 47.81 137.56 47.81 137 48.23 137.21 48.88 136.66 48.5 136.1 48.88 136.28 48.23 135.72 47.84 136.41 47.81 136.66 47.15"/><polygon class="cls-2" points="143.22 40.41 143.43 41.07 144.12 41.07 143.6 41.48 143.81 42.14 143.22 41.76 142.67 42.18 142.88 41.52 142.32 41.1 142.98 41.07 143.22 40.41"/><polygon class="cls-2" points="143.26 45.36 143.5 46.01 144.16 46.01 143.64 46.43 143.85 47.09 143.26 46.7 142.71 47.09 142.91 46.46 142.36 46.05 143.05 46.01 143.26 45.36"/><polygon class="cls-2" points="134.82 40.48 135.07 41.14 135.76 41.14 135.2 41.55 135.41 42.21 134.82 41.83 134.27 42.21 134.48 41.55 133.93 41.17 134.62 41.14 134.82 40.48"/><polygon class="cls-2" points="134.86 45.39 135.1 46.05 135.79 46.05 135.24 46.46 135.45 47.12 134.89 46.74 134.31 47.12 134.51 46.46 133.96 46.05 134.65 46.05 134.86 45.39"/><polygon class="cls-2" points="143.95 42.87 144.16 43.52 144.85 43.52 144.3 43.94 144.5 44.6 143.95 44.22 143.4 44.6 143.57 43.94 143.05 43.52 143.71 43.52 143.95 42.87"/><polygon class="cls-2" points="134.2 42.94 134.41 43.59 135.1 43.59 134.55 44.01 134.75 44.66 134.2 44.28 133.65 44.66 133.82 44.01 133.3 43.63 133.96 43.59 134.2 42.94"/><path class="cls-1" d="M53,40.69v.76c0,4.49,1.9,6.5,5.39,6.5,2,0,3.87-.38,7.5-1.56l.86,2.73c-4.63,2-6.88,2.63-9.58,2.63-5.46,0-9.06-4-9.06-11,0-7.5,3.7-12.41,9.85-12.41,6,0,9,3.63,9,11.24v1H53Zm5.32-9c-3,0-4.81,2.18-5.19,6.33l9.44-.38C62.43,33.57,61.12,31.67,58.29,31.67Z"/><path class="cls-1" d="M84.7,20.81a21.74,21.74,0,0,0-3.87-.28c-2.42,0-3,.93-3,4.11v4.29H84v3.18H77.82V51.27H73.25V32.12H69.35v-2.7l3.91-.52V25.2c0-3.32.24-4.49,1.07-5.7a5.8,5.8,0,0,1,5.15-2.42,23.48,23.48,0,0,1,5.7.86Z"/><path class="cls-1" d="M93.24,51.72a28.29,28.29,0,0,1-7.09-1l.76-3.11a24.52,24.52,0,0,0,5.53.73c3.11,0,4.74-1.14,4.74-3.22,0-1.73-.66-2.45-3.73-3.32-4.11-1.14-7.09-2.49-7.09-6.5,0-4.29,3-6.78,7.88-6.78a21.42,21.42,0,0,1,6.46,1.18L100,32.6a26.34,26.34,0,0,0-5.22-.69c-2.42,0-3.84,1-3.84,2.87,0,4.74,10.89,1.66,10.89,9.65C101.88,49,98.73,51.72,93.24,51.72Z"/><path class="cls-1" d="M117.64,51.23v-2c-2.83,1.66-4.87,2.56-6.84,2.56-3.11,0-5.81-2.35-5.81-7,0-2.87,1.14-4.63,2.94-5.67,2.11-1.24,5.46-1.42,9.54-1.42v-.76c0-3.39,0-4.77-4-4.77a37.69,37.69,0,0,0-6.57.76L106.41,30a33.91,33.91,0,0,1,9.09-1.59c2.63,0,4.36.66,5.32,2.07S122,33.19,122,37.34V51.2h-4.32Zm-.17-10.86c-6.22.41-7.85,1.31-7.85,4.25,0,2.35,1.18,3.49,2.94,3.49a17.41,17.41,0,0,0,4.91-1.31Z"/><path class="cls-3" d="M20.95,0l3.49,2.77,4-.62L26.76,4.56l3.42,2.77L25.55,6.15,23.61,8.54,22.51,5.32,17.87,4l3.94-.8L20.95,0ZM33.88,2.25l.83,2.63-3.32.66L35.3,6.6l1,2.59,1.59-1.94,3.94.93-3-2.25,1.45-2-3.42.52-3-2.21ZM4.53,1.73,5.77,6.5,0,7.74,6.71,9.61l1.56,4.74,2.87-3.6,6.74,1.66-5-4,2.59-3.66-5.88,1-5.08-4ZM45.08,9l.73,2.07-2.73.55,3.25.8.86,2,1.28-1.56,3.28.69-2.49-1.73L50.4,10.3l-2.8.45L45.08,9ZM4,16.28l.9,3.46-4.22,1L5.6,22l1.11,3.42,2.11-2.63,4.94,1.11-3.63-2.83,1.9-2.7-4.32.83L4,16.28Zm20.22,19,.59,1.9-2.49.66,2.94.55L26,40.27l1.21-1.52,3,.48L28,37.75l1.11-1.56-2.56.59L24.23,35.3ZM12.48,27.66l.76,2.73-3.46.86,4,.9.93,2.7,1.69-2.14,4,.76-3-2.21L19,29.07l-3.53.76-3-2.18Zm40-10.23L53,18.91l-2,.38,2.35.59L54,21.36,55,20.22l2.39.52-1.8-1.24.83-1.14-2,.31-1.83-1.24Zm-15,19L38,38l-2,.38,2.35.59L39,40.41,40,39.27l2.39.52-1.8-1.24.83-1.14-2,.31-1.83-1.24Z"/></svg>
